<svg t="1584084851031" class="icon" viewBox="0 0 1024 1024" version="1.1" xmlns="http://www.w3.org/2000/svg" p-id="4226" width="128" height="128">
    <path d="M210.156308 121.304615a409.915077 409.915077 0 0 1 580.726154 0c160.374154 160.768 123.037538 421.415385-37.336616 582.183385l-253.006769 291.052308-253.006769-291.052308c-160.413538-160.768-197.710769-421.415385-37.376-582.183385z m290.382769 767.409231l200.231385-238.119384c131.229538-131.544615 168.566154-344.812308 37.336615-476.356924a335.399385 335.399385 0 0 0-475.136 0c-131.190154 131.544615-93.853538 344.812308 37.336615 476.356924l200.231385 238.119384z" fill="#2c2c2c" p-id="4227" data-spm-anchor-id="a313x.7781069.0.i1" class="selected"></path>
    <path d="M500.539077 187.864615a186.88 186.88 0 0 0-186.683077 187.116308 186.88 186.88 0 0 0 186.683077 187.116308 186.88 186.88 0 0 0 186.683077-187.116308 186.88 186.88 0 0 0-186.683077-187.116308z m0 299.362462a112.128 112.128 0 0 1-112.009846-112.246154 112.128 112.128 0 0 1 112.009846-112.246154 112.128 112.128 0 0 1 112.009846 112.246154 112.128 112.128 0 0 1-112.009846 112.246154z" fill="#2c2c2c" p-id="4228" data-spm-anchor-id="a313x.7781069.0.i0" class="selected"></path>
</svg>